<svg xmlns="http://www.w3.org/2000/svg" fill="none" aria-hidden="true" viewBox="0 0 28 20"><g clip-path="url(#a)"><path fill="#fff" d="M0 0h28v20H0V0z"/><path fill="url(#b)" d="M0 0h28v20H0V0z"/><g filter="url(#c)"><path fill="#262626" fill-rule="evenodd" d="M0 20h28v-9.333H0V20z" clip-rule="evenodd"/></g><g filter="url(#d)"><path fill="#DD2137" fill-rule="evenodd" d="M0 10.667h28V0H0v10.667z" clip-rule="evenodd"/></g><g filter="url(#e)"><path fill="#F8D84B" fill-rule="evenodd" d="M16.198 11.553a4 4 0 0 0-2.44-5.848.667.667 0 0 0-.344 1.288 2.667 2.667 0 0 1 1.67 3.817l-2.047-1.365a.667.667 0 1 0-.74 1.11l1.877 1.251a2.66 2.66 0 0 1-2.14.339.668.668 0 1 0-.346 1.287 3.996 3.996 0 0 0 3.66-.844l.949.633a.667.667 0 0 0 .74-1.109l-.84-.56.001.001zm-3.531-2.886a.667.667 0 1 0 0-1.333.667.667 0 0 0 0 1.333z" clip-rule="evenodd"/></g></g><defs><filter id="c" width="36" height="17.333" x="-4" y="6.667" color-interpolation-filters="sRGB" filterUnits="userSpaceOnUse"><feFlood flood-opacity="0" result="BackgroundImageFix"/><feColorMatrix in="SourceAlpha" values="0 0 0 0 0 0 0 0 0 0 0 0 0 0 0 0 0 0 127 0"/><feOffset/><feGaussianBlur stdDeviation="2"/><feColorMatrix values="0 0 0 0 0 0 0 0 0 0 0 0 0 0 0 0 0 0 0.06 0"/><feBlend in2="BackgroundImageFix" result="effect1_dropShadow"/><feBlend in="SourceGraphic" in2="effect1_dropShadow" result="shape"/></filter><filter id="d" width="36" height="18.667" x="-4" y="-4" color-interpolation-filters="sRGB" filterUnits="userSpaceOnUse"><feFlood flood-opacity="0" result="BackgroundImageFix"/><feColorMatrix in="SourceAlpha" values="0 0 0 0 0 0 0 0 0 0 0 0 0 0 0 0 0 0 127 0"/><feOffset/><feGaussianBlur stdDeviation="2"/><feColorMatrix values="0 0 0 0 0 0 0 0 0 0 0 0 0 0 0 0 0 0 0.06 0"/><feBlend in2="BackgroundImageFix" result="effect1_dropShadow"/><feBlend in="SourceGraphic" in2="effect1_dropShadow" result="shape"/></filter><filter id="e" width="14.149" height="15.881" x="7.166" y="2.688" color-interpolation-filters="sRGB" filterUnits="userSpaceOnUse"><feFlood flood-opacity="0" result="BackgroundImageFix"/><feColorMatrix in="SourceAlpha" values="0 0 0 0 0 0 0 0 0 0 0 0 0 0 0 0 0 0 127 0"/><feOffset dy="1"/><feGaussianBlur stdDeviation="2"/><feColorMatrix values="0 0 0 0 0 0 0 0 0 0 0 0 0 0 0 0 0 0 0.06 0"/><feBlend in2="BackgroundImageFix" result="effect1_dropShadow"/><feBlend in="SourceGraphic" in2="effect1_dropShadow" result="shape"/></filter><linearGradient id="b" x1="0" x2="0" y1="0" y2="20" gradientUnits="userSpaceOnUse"><stop stop-color="#FF323E"/><stop offset="1" stop-color="#FD0D1B"/></linearGradient><clipPath id="a"><path fill="#fff" d="M0 0h28v20H0z"/></clipPath></defs></svg>