<svg xmlns="http://www.w3.org/2000/svg" fill="none" aria-hidden="true" viewBox="0 0 28 20"><g clip-path="url(#a)"><path fill="#fff" d="M0 0h28v20H0V0z"/><path fill="#0A17A7" d="M0 0h28v20H0V0z"/><path fill="#fff" fill-rule="evenodd" d="m-1.282-1.916 11.949 8.06v-7.477h6.666v7.476l11.95-8.06 1.49 2.211-9.447 6.373H28v6.666h-6.674l9.448 6.373-1.492 2.21-11.949-8.06v7.477h-6.666v-7.476l-11.95 8.06-1.49-2.211 9.447-6.373H0V6.667h6.674L-2.774.294l1.492-2.21z" clip-rule="evenodd"/><path stroke="#DB1F35" stroke-linecap="round" stroke-width=".667" d="M9.29 13.605-3.837 22.31M18.668 6.332 31.333-2 18.668 6.332zm1.345 7.365 11.354 7.653-11.354-7.653zM8.006 6.31-3.837-1.67 8.006 6.31z"/><path fill="#E6273E" fill-rule="evenodd" d="M0 12h12v8h4v-8h12V8H16V0h-4v8H0v4z" clip-rule="evenodd"/></g><defs><clipPath id="a"><path fill="#fff" d="M0 0h28v20H0z"/></clipPath></defs></svg>