<svg id="canvas" height="auto" xmlns="http://www.w3.org/2000/svg" version="1.1" xmlns:xlink="http://www.w3.org/1999/xlink" xmlns:svgjs="http://svgjs.dev/svgjs" viewBox="0 0 2560 1600" width="auto" style="width: auto; height: auto;"><rect width="2560" height="1600" fill="#ffffff"/><polyline points="1533.5882568359375,217.6520094871401 1570.898360038059,180.34190628501867 1608.2084632401804,217.6520094871401 1645.5185664423018,180.34190628501867 1682.8286696444234,217.6520094871401 1720.1387728465447,180.34190628501867 1757.448876048666,217.6520094871401" stroke-width="4" stroke="#f6b17a" fill="none"/><polyline points="54.66897201538086,1279.0688398470652 79.54567149933777,1254.1921403631084 104.42237098329468,1279.0688398470652 129.2990704672516,1254.1921403631084 154.1757699512085,1279.0688398470652 179.05246943516545,1254.1921403631084 203.92916891912236,1279.0688398470652" stroke-width="4" stroke="#f6b17a" fill="none"/><polyline points="1005.4710083007812,1558.4659498299202 1041.0172492844395,1522.9197088462618 1076.5634902680981,1558.4659498299202 1112.1097312517563,1522.9197088462618 1147.6559722354145,1558.4659498299202 1183.2022132190732,1522.9197088462618 1218.7484542027314,1558.4659498299202" stroke-width="4" stroke="#f6b17a" fill="none"/><svg width="81.62533799752676" height="81.62533799752676" stroke-width="4" stroke="#f6b17a" fill="none" x="1578.9793648009768" y="742.0457015880048"><line x1="0" y1="20.40633449938169" x2="40.81266899876338" y2="20.40733449938169"/><line x1="20.40633449938169" y1="0" x2="20.40733449938169" y2="40.81266899876338"/></svg><circle r="25.149617503606763" cx="25.149617503606763" cy="25.149617503606763" transform="matrix(1,0,0,1,1901.8913289748157,1268.8916789417688)" stroke-width="4" stroke="#f6b17a" fill="none"/><circle r="14.074299546339468" cx="14.074299546339468" cy="14.074299546339468" transform="matrix(1,0,0,1,747.0941291476936,1595.5738065215548)" stroke-width="4" stroke="#f6b17a" fill="none"/><polyline points="23.528039932250977,675.8020809248923 50.19389372923766,649.1362271279056 76.85974752622434,675.8020809248923 103.52560132321102,649.1362271279056 130.1914551201977,675.8020809248923 156.85730891718438,649.1362271279056 183.52316271417106,675.8020809248923" stroke-width="4" stroke="#f6b17a" fill="none"/><svg width="101.84146522878615" height="101.84146522878615" stroke-width="4" stroke="#f6b17a" fill="none" x="2451.958698469809" y="1327.8527765152432"><line x1="0" y1="25.460366307196537" x2="50.920732614393074" y2="25.46136630719654"/><line x1="25.460366307196537" y1="0" x2="25.46136630719654" y2="50.920732614393074"/></svg><polyline points="2076.366943359375,1035.1971452950527 2098.752298128862,1012.8117905255657 2121.1376528983487,1035.1971452950527 2143.523007667836,1012.8117905255657 2165.908362437323,1035.1971452950527 2188.29371720681,1012.8117905255657 2210.679071976297,1035.1971452950527" stroke-width="4" stroke="#f6b17a" fill="none"/><svg width="72.48422643152958" height="72.48422643152958" stroke-width="4" stroke="#f6b17a" fill="none" x="468.3230188042488" y="28.429085790111913"><line x1="0" y1="18.121056607882394" x2="36.24211321576479" y2="18.122056607882396"/><line x1="18.121056607882394" y1="0" x2="18.122056607882396" y2="36.24211321576479"/></svg><svg width="98.678524004356" height="98.678524004356" stroke-width="4" stroke="#f6b17a" fill="none" x="1223.3559249138984" y="1416.7155816599652"><line x1="0" y1="24.669631001089" x2="49.339262002178" y2="24.670631001089003"/><line x1="24.669631001089" y1="0" x2="24.670631001089003" y2="49.339262002178"/></svg><circle r="20.971419807474035" cx="20.971419807474035" cy="20.971419807474035" transform="matrix(1,0,0,1,1725.3160030307608,1416.0386113357279)" stroke-width="4" stroke="#f6b17a" fill="none"/><svg width="97.28740354265493" height="97.28740354265493" stroke-width="4" stroke="#f6b17a" fill="none" x="488.59286485673744" y="541.2892570900411"><line x1="0" y1="24.321850885663732" x2="48.643701771327464" y2="24.322850885663733"/><line x1="24.321850885663732" y1="0" x2="24.322850885663733" y2="48.643701771327464"/></svg><polyline points="1228.7850341796875,1296.671316769176 1269.8449533389387,1255.611397609925 1310.90487249819,1296.671316769176 1351.9647916574409,1255.611397609925 1393.0247108166918,1296.671316769176 1434.084629975943,1255.611397609925 1475.1445491351942,1296.671316769176" stroke-width="4" stroke="#f6b17a" fill="none"/><circle r="16.31792982878647" cx="16.31792982878647" cy="16.31792982878647" transform="matrix(1,0,0,1,2417.556542743474,1134.797201292374)" stroke-width="4" stroke="#f6b17a" fill="none"/><circle r="17.11507893881803" cx="17.11507893881803" cy="17.11507893881803" transform="matrix(1,0,0,1,1737.5677927664701,1068.7435164762862)" stroke-width="4" stroke="#f6b17a" fill="none"/><svg width="61.37597961007367" height="61.37597961007367" stroke-width="4" stroke="#f6b17a" fill="none" x="856.957778258701" y="1481.239439447695"><line x1="0" y1="15.343994902518418" x2="30.687989805036835" y2="15.344994902518417"/><line x1="15.343994902518418" y1="0" x2="15.344994902518417" y2="30.687989805036835"/></svg><svg width="87.40387714096201" height="87.40387714096201" stroke-width="4" stroke="#f6b17a" fill="none" x="598.26898018405" y="1315.9299135100339"><line x1="0" y1="21.850969285240502" x2="43.701938570481005" y2="21.851969285240504"/><line x1="21.850969285240502" y1="0" x2="21.851969285240504" y2="43.701938570481005"/></svg><circle r="27.793170688839375" cx="27.793170688839375" cy="27.793170688839375" transform="matrix(1,0,0,1,1329.7843732963242,367.5629021548689)" stroke-width="4" stroke="#f6b17a" fill="none"/><svg width="111.66749059422702" height="111.66749059422702" stroke-width="4" stroke="#f6b17a" fill="none" x="1212.2085509479566" y="1011.2805744770808"><line x1="0" y1="27.916872648556755" x2="55.83374529711351" y2="27.917872648556756"/><line x1="27.916872648556755" y1="0" x2="27.917872648556756" y2="55.83374529711351"/></svg></svg>